HIERARCHY
ROOT Hips
{
  OFFSET 52.6349 56.3601 -13.2573
  CHANNELS 6 Xposition Yposition Zposition Zrotation Xrotation Yrotation
  JOINT spine
  {
    OFFSET 0 7.96568 0.458067
    CHANNELS 3 Zrotation Xrotation Yrotation
    JOINT spine1
    {
      OFFSET 0 10.2431 0
      CHANNELS 3 Zrotation Xrotation Yrotation
      JOINT spine2
      {
        OFFSET 0 9.81475 0
        CHANNELS 3 Zrotation Xrotation Yrotation
        JOINT Neck
        {
          OFFSET 0 25.1986 1.20138
          CHANNELS 3 Zrotation Xrotation Yrotation
          JOINT Head
          {
            OFFSET 0 7.61315 0
            CHANNELS 3 Zrotation Xrotation Yrotation
            End Site
            {
              OFFSET 0 18.4281 -6.07733
            }
          }
        }
        JOINT RightShoulder
        {
          OFFSET -4.1327 10.5992 -0.575451
          CHANNELS 3 Zrotation Xrotation Yrotation
          JOINT RightArm
          {
            OFFSET 0 13.9018 0
            CHANNELS 3 Zrotation Xrotation Yrotation
            JOINT RightArmRoll
            {
              OFFSET 0 7.01789 0
              CHANNELS 3 Zrotation Xrotation Yrotation
              JOINT RightForeArm
              {
                OFFSET 0 20.4406 0
                CHANNELS 3 Zrotation Xrotation Yrotation
                JOINT RightForeArmRoll
                {
                  OFFSET 0 7.87515 0
                  CHANNELS 3 Zrotation Xrotation Yrotation
                  JOINT RightHand
                  {
                    OFFSET 0 15.8037 0
                    CHANNELS 3 Zrotation Xrotation Yrotation
                    End Site
                    {
                      OFFSET 0 0 0
                    }
                  }
                }
              }
            }
          }
        }
        JOINT LeftShoulder
        {
          OFFSET 4.1327 10.5992 -0.575451
          CHANNELS 3 Zrotation Xrotation Yrotation
          JOINT LeftArm
          {
            OFFSET 0 13.9018 0
            CHANNELS 3 Zrotation Xrotation Yrotation
            JOINT LeftArmRoll
            {
              OFFSET 0 7.01789 0
              CHANNELS 3 Zrotation Xrotation Yrotation
              JOINT LeftForeArm
              {
                OFFSET 0 20.4406 0
                CHANNELS 3 Zrotation Xrotation Yrotation
                JOINT LeftForeArmRoll
                {
                  OFFSET 0 7.87515 0
                  CHANNELS 3 Zrotation Xrotation Yrotation
                  JOINT LeftHand
                  {
                    OFFSET 0 15.8037 0
                    CHANNELS 3 Zrotation Xrotation Yrotation
                    End Site
                    {
                      OFFSET 0 0 0
                    }
                  }
                }
              }
            }
          }
        }
      }
    }
  }
  JOINT RightUpLeg
  {
    OFFSET -7.06048 -1.2947 -1.0861
    CHANNELS 3 Zrotation Xrotation Yrotation
    JOINT RightUpLegRoll
    {
      OFFSET 0 18.5308 0
      CHANNELS 3 Zrotation Xrotation Yrotation
      JOINT RightLeg
      {
        OFFSET 0 -22.9476 0
        CHANNELS 3 Zrotation Xrotation Yrotation
        JOINT RightLegRoll
        {
          OFFSET 0 23.0226 0
          CHANNELS 3 Zrotation Xrotation Yrotation
          JOINT RightFoot
          {
            OFFSET 0 19.1625 0
            CHANNELS 3 Zrotation Xrotation Yrotation
            JOINT RightToeBase
            {
              OFFSET 0 16.0188 0
              CHANNELS 3 Zrotation Xrotation Yrotation
              End Site
              {
                OFFSET 0.00678979 7.75781 -0.894207
              }
            }
          }
        }
      }
    }
  }
  JOINT LeftUpLeg
  {
    OFFSET 7.06048 -1.2947 -1.0861
    CHANNELS 3 Zrotation Xrotation Yrotation
    JOINT LeftUpLegRoll
    {
      OFFSET 0 18.5309 0
      CHANNELS 3 Zrotation Xrotation Yrotation
      JOINT LeftLeg
      {
        OFFSET 0 22.9475 0
        CHANNELS 3 Zrotation Xrotation Yrotation
        JOINT LeftLegRoll
        {
          OFFSET 0 23.2355 0
          CHANNELS 3 Zrotation Xrotation Yrotation
          JOINT LeftFoot
          {
            OFFSET 0 18.9496 0
            CHANNELS 3 Zrotation Xrotation Yrotation
            JOINT LeftToeBase
            {
              OFFSET 0 16.0188 0
              CHANNELS 3 Zrotation Xrotation Yrotation
              End Site
              {
                OFFSET -0.0304289 7.75781 -0.894207
              }
            }
          }
        }
      }
    }
  }
}
MOTION
Frames: 10
Frame Time: 0.00208333
53.1618 58.0912 -9.62804 3.52966 3.78263 7.75731 -0.847663 2.1746 -0.102528 -1.70309 8.352 -0.0701696 -1.70702 9.99668 -0.0413813 3.39872 20.3199 -4.13794 -2.25894 6.78397 -3.1595 64.5247 -3.44081 -2.5944 110.371 30.0095 -20.194 3.57812e-015 5.56597e-015 -3.18055e-015 21.2305 59.098 -15.5453 -3.22751e-006 1.94008e-006 -3.00667 8.02956 -4.95142 0.697643 -61.2085 1.7883 -0.735541 -110.832 34.2658 26.3934 7.95139e-015 0 6.36111e-015 -25.6179 56.4998 17.3453 5.70895e-006 2.72201e-006 2.99999 -8.02932 -4.95144 -0.697653 95.5585 80.5168 81.3693 180 7.01581e-015 179.081 -147.996 80.0099 148.606 3.76447e-006 -6.85207e-006 1.42468 -11.0376 63.0564 16.6545 8.1365 25.2327 -3.48774 148.337 86.6197 29.1086 4.54188e-006 -4.6773e-006 -1.30873 13.2067 -81.2174 14.476 5.29274e-006 -7.83036e-006 -1.65452 12.8679 63.1483 -16.518 -8.13649 25.2327 3.48774 
53.1453 58.065 -9.64172 3.55097 3.63185 7.7399 -0.848094 2.16064 -0.105916 -1.70367 8.32413 -0.0781027 -1.7075 9.96881 -0.0493223 3.26872 20.3401 -4.08846 -2.18422 6.73445 -3.14957 64.4562 -3.41079 -2.57253 110.545 30.0974 -20.1522 -2.78299e-015 -1.59028e-015 -0 21.1637 58.7346 -15.3816 -3.22751e-006 1.94008e-006 -3.00667 8.02956 -4.95142 0.697643 -61.3041 1.75958 -0.705242 -110.896 34.3465 26.2606 -3.26007e-014 1.27222e-014 -6.36111e-015 -25.499 56.1857 17.1563 5.70895e-006 2.72201e-006 2.99999 -8.02932 -4.95144 -0.697653 96.2715 80.532 80.6495 180 7.0158e-015 179.078 -147.822 80.0249 148.449 3.76447e-006 -6.85206e-006 1.42572 -11.0361 63.0587 16.6566 8.1365 25.2327 -3.48774 149.663 86.5279 27.7817 4.54188e-006 -4.6773e-006 -1.31073 13.2778 -81.2401 14.5408 5.29274e-006 -7.83036e-006 -1.65446 12.8572 63.1407 -16.5149 -8.13649 25.2327 3.48774 
53.1376 58.0321 -9.65791 3.57189 3.4817 7.7234 -0.848144 2.14677 -0.109136 -1.70352 8.29645 -0.0856775 -1.70724 9.94113 -0.0569167 3.14131 20.3597 -4.04 -2.11385 6.6854 -3.14004 64.3898 -3.38165 -2.55132 110.712 30.1846 -20.1105 -7.95139e-015 -4.77083e-015 -0 21.0998 58.3754 -15.2223 -3.22751e-006 1.94008e-006 -3.00667 8.02956 -4.95142 0.697643 -61.4021 1.7334 -0.676073 -110.953 34.4285 26.1273 -1.43125e-014 4.77083e-015 -0 -25.3862 55.8728 16.9722 5.70895e-006 2.72201e-006 2.99999 -8.02932 -4.95144 -0.697653 96.9839 80.5441 79.9306 180 7.0158e-015 179.076 -147.655 80.0392 148.297 3.76447e-006 -6.85206e-006 1.42689 -11.0352 63.0613 16.6587 8.1365 25.2327 -3.48774 150.904 86.4341 26.5407 4.54188e-006 -4.6773e-006 -1.31274 13.3473 -81.2619 14.6038 5.29274e-006 -7.83036e-006 -1.6544 12.8467 63.1325 -16.5115 -8.13649 25.2327 3.48774 
53.1349 58.0176 -9.67032 3.5923 3.33198 7.70796 -0.847698 2.13308 -0.112089 -1.7024 8.26912 -0.0926871 -1.70602 9.9138 -0.0639611 3.01728 20.3784 -3.99294 -2.04901 6.63739 -3.13105 64.326 -3.3541 -2.53118 110.873 30.2713 -20.0684 7.15625e-015 4.77083e-015 -3.18055e-015 21.0395 58.0213 -15.0683 -3.22751e-006 1.94008e-006 -3.00667 8.02956 -4.95142 0.697643 -61.5037 1.7106 -0.648351 -111.003 34.5123 25.9931 -4.77083e-015 0 -0 -25.2808 55.5611 16.7937 5.70895e-006 2.72201e-006 2.99999 -8.02932 -4.95144 -0.697653 97.6973 80.5528 79.211 180 7.01579e-015 179.073 -147.496 80.0527 148.153 3.76447e-006 -6.85207e-006 1.42822 -11.0348 63.0641 16.6608 8.1365 25.2327 -3.48774 152.063 86.338 25.3815 4.54188e-006 -4.6773e-006 -1.31477 13.4146 -81.2825 14.6647 5.29274e-006 -7.83036e-006 -1.65433 12.8365 63.1237 -16.5077 -8.13649 25.2327 3.48774 
53.1306 58.0046 -9.68641 3.61208 3.18247 7.69375 -0.84664 2.11964 -0.114675 -1.7001 8.24229 -0.0989251 -1.70362 9.88697 -0.0702525 2.89742 20.3959 -3.94765 -1.99089 6.591 -3.12278 64.2655 -3.32882 -2.51253 111.026 30.3572 -20.0256 1.59028e-014 7.15625e-015 -0 20.9833 57.6736 -14.9202 -3.22751e-006 1.94008e-006 -3.00667 8.02956 -4.95142 0.697643 -61.6098 1.69201 -0.622392 -111.042 34.5983 25.8576 -3.97569e-015 0 -0 -25.1841 55.2508 16.6211 5.70895e-006 2.72201e-006 2.99999 -8.02932 -4.95144 -0.697653 98.4133 80.5576 78.4892 180 7.01579e-015 179.071 -147.348 80.0652 148.018 3.76447e-006 -6.85206e-006 1.4297 -11.0351 63.067 16.6628 8.1365 25.2327 -3.48774 153.143 86.2394 24.3004 4.54188e-006 -4.6773e-006 -1.31685 13.4794 -81.3016 14.7229 5.29274e-006 -7.83036e-006 -1.65427 12.8268 63.1142 -16.5035 -8.13649 25.2327 3.48774 
53.128 57.9863 -9.70055 3.63112 3.03298 7.6809 -0.844857 2.10653 -0.116799 -1.69638 8.21612 -0.104185 -1.69981 9.8608 -0.0755877 2.78256 20.4118 -3.9045 -1.94069 6.54677 -3.11538 64.2088 -3.3065 -2.49581 111.169 30.4426 -19.9821 1.07344e-014 6.36111e-015 -0 20.9317 57.3333 -14.7787 -3.22751e-006 1.94008e-006 -3.00667 8.02956 -4.95142 0.697643 -61.7217 1.67847 -0.598514 -111.07 34.6871 25.7203 -9.54166e-015 9.54166e-015 -0 -25.0973 54.9418 16.4552 5.70895e-006 2.72201e-006 2.99999 -8.02932 -4.95144 -0.697653 99.1335 80.5583 77.7639 180 7.01578e-015 179.068 -147.212 80.0764 147.895 3.76447e-006 -6.85206e-006 1.43137 -11.0363 63.0699 16.6647 8.1365 25.2327 -3.48774 154.149 86.138 23.2938 4.54188e-006 -4.6773e-006 -1.31896 13.5413 -81.319 14.7782 5.29274e-006 -7.83036e-006 -1.65421 12.8176 63.104 -16.4988 -8.13649 25.2327 3.48774 
53.1177 57.9659 -9.71578 3.64931 2.88329 7.66959 -0.842232 2.09384 -0.11836 -1.69102 8.19077 -0.10826 -1.69438 9.83545 -0.0797635 2.67347 20.426 -3.86388 -1.89961 6.50528 -3.10903 64.1565 -3.28784 -2.48144 111.302 30.5273 -19.9373 -9.54166e-015 -7.95139e-016 -9.54166e-015 20.8852 57.0016 -14.6445 -3.22751e-006 1.94008e-006 -3.00667 8.02956 -4.95142 0.697643 -61.8404 1.67081 -0.577032 -111.084 34.7792 25.5807 3.97569e-015 1.59028e-015 3.18055e-015 -25.0216 54.6344 16.2963 5.70895e-006 2.72201e-006 2.99999 -8.02932 -4.95144 -0.697653 99.8591 80.5542 77.0338 180 7.01578e-015 179.066 -147.091 80.0862 147.786 3.76447e-006 -6.85207e-006 1.43323 -11.0382 63.0729 16.6664 8.1365 25.2327 -3.48774 155.084 86.0337 22.3591 4.54188e-006 -4.6773e-006 -1.32112 13.5999 -81.3344 14.83 5.29274e-006 -7.83036e-006 -1.65417 12.809 63.0929 -16.4935 -8.13649 25.2327 3.48774 
53.1151 57.9491 -9.72918 3.66654 2.7332 7.65995 -0.838652 2.08164 -0.11926 -1.68381 8.16639 -0.110945 -1.6871 9.81108 -0.0825772 2.57097 20.438 -3.82615 -1.86883 6.46709 -3.10389 64.1094 -3.27351 -2.46983 111.422 30.6113 -19.8911 3.22031e-014 1.59028e-014 3.18055e-015 20.8443 56.6796 -14.5181 -3.22751e-006 1.94008e-006 -3.00667 8.02956 -4.95142 0.697643 -61.9671 1.66987 -0.558263 -111.082 34.8751 25.4383 1.19271e-014 -3.18055e-015 6.36111e-015 -24.9584 54.3284 16.145 5.70895e-006 2.72201e-006 2.99999 -8.02932 -4.95144 -0.697653 100.591 80.545 76.2978 180 7.01577e-015 179.064 -146.988 80.0941 147.692 3.76447e-006 -6.85206e-006 1.43529 -11.0412 63.0758 16.668 8.1365 25.2327 -3.48774 155.949 85.9262 21.4937 4.54188e-006 -4.6773e-006 -1.32333 13.6547 -81.3475 14.8779 5.29274e-006 -7.83036e-006 -1.65414 12.8012 63.081 -16.4877 -8.13649 25.2327 3.48774 
53.1074 57.915 -9.74517 3.68286 2.58326 7.65225 -0.834004 2.06968 -0.119497 -1.67452 8.14249 -0.112228 -1.67776 9.78718 -0.0840221 2.47456 20.4496 -3.79125 -1.84928 6.43103 -3.10011 64.0663 -3.26332 -2.46081 111.53 30.6941 -19.8438 8.74653e-015 1.59028e-015 -0 20.8075 56.3667 -14.398 -3.22751e-006 1.94008e-006 -3.00667 8.02956 -4.95142 0.697643 -62.1038 1.67669 -0.542515 -111.061 34.9753 25.2922 6.36111e-015 -4.77083e-015 3.18055e-015 -24.9093 54.0243 16.0022 5.70895e-006 2.72201e-006 2.99999 -8.02932 -4.95144 -0.697653 101.325 80.5304 75.5612 180 7.01577e-015 179.062 -146.903 80.1005 147.615 3.76447e-006 -6.85207e-006 1.43766 -11.0451 63.0789 16.6694 8.1365 25.2327 -3.48774 156.742 85.8157 20.6995 4.54188e-006 -4.6773e-006 -1.32563 13.7063 -81.3586 14.9222 5.29274e-006 -7.83036e-006 -1.65409 12.7941 63.0676 -16.481 -8.13649 25.2327 3.48774 
53.1045 57.9018 -9.75959 3.69845 2.4341 7.64651 -0.828337 2.05768 -0.119182 -1.66326 8.11849 -0.112342 -1.66645 9.76319 -0.0843287 2.38296 20.4624 -3.7587 -1.84026 6.39558 -3.0976 64.0257 -3.25632 -2.45373 111.628 30.7755 -19.796 -7.95139e-015 -6.36111e-015 -6.36111e-015 20.7729 56.0612 -14.2822 -3.22751e-006 1.94008e-006 -3.00667 8.02956 -4.95142 0.697643 -62.2507 1.69107 -0.529645 -111.021 35.0797 25.1422 -4.77083e-015 3.18055e-015 -3.18055e-015 -24.874 53.7221 15.8676 5.70895e-006 2.72201e-006 2.99999 -8.02932 -4.95144 -0.697653 102.053 80.5107 74.8306 180 7.01577e-015 179.06 -146.833 80.1056 147.551 3.76447e-006 -6.85207e-006 1.44036 -11.05 63.0823 16.6708 8.1365 25.2327 -3.48774 157.466 85.7031 19.975 4.54188e-006 -4.6773e-006 -1.32803 13.7551 -81.368 14.9636 5.29274e-006 -7.83036e-006 -1.65401 12.7874 63.0524 -16.4732 -8.13649 25.2327 3.48774 
